<svg width="129" height="129" viewBox="0 0 129 129" fill="none" xmlns="http://www.w3.org/2000/svg">
<path d="M32.3497 22.3769L30.2707 20.2979C28.1918 18.2189 24.8334 18.2722 22.8077 20.2979L22.7544 20.3512C20.6754 22.4302 20.6754 25.7886 22.7544 27.8143L24.8334 29.8933C26.9124 31.9723 30.2174 31.9723 32.2964 29.8933L32.3497 29.84C34.4287 27.8143 34.4287 24.4026 32.3497 22.3769ZM16.1443 56.2805H10.7069C7.77497 56.2805 5.42944 58.626 5.42944 61.5579V61.6112C5.42944 64.5431 7.77497 66.8887 10.7069 66.8887H16.0909C19.0762 66.942 21.4217 64.5965 21.4217 61.6645V61.6112C21.4217 58.626 19.0762 56.2805 16.1443 56.2805ZM64.121 3.2395H64.0677C61.0825 3.2395 58.737 5.58503 58.737 8.51695V13.6345C58.737 16.5664 61.0825 18.9119 64.0144 18.9119H64.0677C67.0529 18.9652 69.3985 16.6197 69.3985 13.6878V8.51695C69.3985 5.58503 67.0529 3.2395 64.121 3.2395ZM105.381 20.3512C103.302 18.2722 99.9437 18.2722 97.8647 20.2979L95.7857 22.3769C93.7067 24.4559 93.7067 27.8143 95.7857 29.84L95.839 29.8933C97.918 31.9723 101.276 31.9723 103.302 29.8933L105.381 27.8143C107.46 25.7353 107.46 22.4302 105.381 20.3512ZM95.7324 100.846L97.8114 102.925C99.8904 105.004 103.249 105.004 105.328 102.925C107.407 100.846 107.407 97.4872 105.328 95.4082L103.249 93.3292C101.17 91.2502 97.8114 91.3035 95.7857 93.3292C93.6534 95.4615 93.6534 98.7666 95.7324 100.846ZM106.714 61.5579V61.6112C106.714 64.5431 109.059 66.8887 111.991 66.8887H117.375C120.307 66.8887 122.653 64.5431 122.653 61.6112V61.5579C122.653 58.626 120.307 56.2805 117.375 56.2805H111.991C109.059 56.2805 106.714 58.626 106.714 61.5579ZM64.0677 29.6267C46.4229 29.6267 32.0832 43.9664 32.0832 61.6112C32.0832 79.256 46.4229 93.5957 64.0677 93.5957C81.7125 93.5957 96.0522 79.256 96.0522 61.6112C96.0522 43.9664 81.7125 29.6267 64.0677 29.6267ZM64.0144 119.983H64.0677C66.9996 119.983 69.3452 117.637 69.3452 114.706V109.588C69.3452 106.656 66.9996 104.311 64.0677 104.311H64.0144C61.0825 104.311 58.737 106.656 58.737 109.588V114.706C58.737 117.637 61.0825 119.983 64.0144 119.983ZM22.7544 102.871C24.8334 104.95 28.1918 104.95 30.2707 102.871L32.3497 100.792C34.4287 98.7133 34.3754 95.3549 32.3497 93.3292L32.2964 93.2759C30.2174 91.1969 26.8591 91.1969 24.7801 93.2759L22.7011 95.3549C20.6754 97.4872 20.6754 100.792 22.7544 102.871Z" fill="black"/>
</svg>
