<svg width="39" height="39" viewBox="0 0 39 39" fill="none" xmlns="http://www.w3.org/2000/svg">
<path d="M9.15455 11.3362C9.17535 11.3622 9.40935 11.669 9.67715 12.0174C10.2934 12.8208 10.7042 13.3564 11.167 13.9622C11.3672 14.2274 11.8066 14.7994 12.142 15.2362C12.4774 15.673 13.4212 16.9054 14.2454 17.9792C15.067 19.0504 15.8288 20.0436 15.9354 20.1866L16.133 20.4414L16.0654 20.4986C15.9952 20.5532 15.4518 21.0316 14.3884 21.9702C12.5944 23.5536 10.5326 25.3632 9.20395 26.5202C7.12395 28.3272 6.77295 28.634 6.76515 28.6574C6.75995 28.6678 8.18475 28.6782 9.92935 28.6782H13.1014L13.1872 28.6054C13.234 28.5638 13.5122 28.322 13.806 28.0672C14.0998 27.8124 14.6848 27.3054 15.106 26.9388C16.133 26.047 17.511 24.8432 18.8032 23.7044C19.1724 23.3794 19.487 23.1142 19.5 23.1142C19.513 23.1142 19.8276 23.3794 20.1968 23.7044C21.489 24.8432 22.867 26.047 23.894 26.9388C24.3152 27.3054 24.9002 27.8124 25.194 28.0672C25.4878 28.322 25.766 28.5638 25.8128 28.6054L25.8986 28.6782H29.0706C30.8152 28.6782 32.24 28.6678 32.2348 28.6574C32.227 28.634 31.876 28.3272 29.796 26.5202C28.4674 25.3632 26.4056 23.5536 24.6116 21.9702C23.5482 21.0316 23.0048 20.5532 22.9346 20.4986L22.867 20.4414L23.0646 20.1866C23.1712 20.0436 23.933 19.0504 24.7546 17.9792C25.5788 16.9054 26.5226 15.673 26.858 15.2362C27.1934 14.7994 27.6328 14.2274 27.833 13.9622C28.2958 13.3564 28.7066 12.8208 29.3228 12.0174C29.5906 11.669 29.8246 11.3622 29.8454 11.3362C29.8792 11.2842 29.8506 11.2842 26.6864 11.2842C23.5846 11.2842 23.4884 11.2868 23.4598 11.3336C23.4442 11.3596 22.7708 12.241 21.9674 13.2888C21.164 14.3392 20.2826 15.4858 20.0122 15.8394C19.7418 16.1956 19.5104 16.4842 19.5 16.4842C19.4896 16.4842 19.2582 16.1956 18.9878 15.8394C18.7174 15.4858 17.836 14.3392 17.0326 13.2888C16.2292 12.241 15.5558 11.3596 15.5402 11.3336C15.5116 11.2868 15.4154 11.2842 12.3136 11.2842C9.14935 11.2842 9.12075 11.2842 9.15455 11.3362Z" fill="black"/>
</svg>
