<svg width="39" height="39" viewBox="0 0 39 39" fill="none" xmlns="http://www.w3.org/2000/svg">
<path d="M9.15455 11.336C9.17535 11.362 9.40935 11.6688 9.67715 12.0172C10.2934 12.8206 10.7042 13.3562 11.167 13.962C11.3672 14.2272 11.8066 14.7992 12.142 15.236C12.4774 15.6728 13.4212 16.9052 14.2454 17.979C15.067 19.0502 15.8288 20.0434 15.9354 20.1864L16.133 20.4412L16.0654 20.4984C15.9952 20.553 15.4518 21.0314 14.3884 21.97C12.5944 23.5534 10.5326 25.363 9.20395 26.52C7.12395 28.327 6.77295 28.6338 6.76515 28.6572C6.75995 28.6676 8.18475 28.678 9.92935 28.678H13.1014L13.1872 28.6052C13.234 28.5636 13.5122 28.3218 13.806 28.067C14.0998 27.8122 14.6848 27.3052 15.106 26.9386C16.133 26.0468 17.511 24.843 18.8032 23.7042C19.1724 23.3792 19.487 23.114 19.5 23.114C19.513 23.114 19.8276 23.3792 20.1968 23.7042C21.489 24.843 22.867 26.0468 23.894 26.9386C24.3152 27.3052 24.9002 27.8122 25.194 28.067C25.4878 28.3218 25.766 28.5636 25.8128 28.6052L25.8986 28.678H29.0706C30.8152 28.678 32.24 28.6676 32.2348 28.6572C32.227 28.6338 31.876 28.327 29.796 26.52C28.4674 25.363 26.4056 23.5534 24.6116 21.97C23.5482 21.0314 23.0048 20.553 22.9346 20.4984L22.867 20.4412L23.0646 20.1864C23.1712 20.0434 23.933 19.0502 24.7546 17.979C25.5788 16.9052 26.5226 15.6728 26.858 15.236C27.1934 14.7992 27.6328 14.2272 27.833 13.962C28.2958 13.3562 28.7066 12.8206 29.3228 12.0172C29.5906 11.6688 29.8246 11.362 29.8454 11.336C29.8792 11.284 29.8506 11.284 26.6864 11.284C23.5846 11.284 23.4884 11.2866 23.4598 11.3334C23.4442 11.3594 22.7708 12.2408 21.9674 13.2886C21.164 14.339 20.2826 15.4856 20.0122 15.8392C19.7418 16.1954 19.5104 16.484 19.5 16.484C19.4896 16.484 19.2582 16.1954 18.9878 15.8392C18.7174 15.4856 17.836 14.339 17.0326 13.2886C16.2292 12.2408 15.5558 11.3594 15.5402 11.3334C15.5116 11.2866 15.4154 11.284 12.3136 11.284C9.14935 11.284 9.12075 11.284 9.15455 11.336Z" fill="white"/>
</svg>
