<?xml version="1.0" standalone="no"?>
<!DOCTYPE svg PUBLIC "-//W3C//DTD SVG 20010904//EN"
 "http://www.w3.org/TR/2001/REC-SVG-20010904/DTD/svg10.dtd">
<svg version="1.0" xmlns="http://www.w3.org/2000/svg"
 width="1500.000000pt" height="1500.000000pt" viewBox="0 0 1500.000000 1500.000000"
 preserveAspectRatio="xMidYMid meet">

<g transform="translate(0.000000,1500.000000) scale(0.100000,-0.100000)"
fill="#FFFFFF" stroke="none">
<path d="M3521 10640 c8 -10 98 -128 201 -262 237 -309 395 -515 573 -748 77
-102 246 -322 375 -490 129 -168 492 -642 809 -1055 316 -412 609 -794 650
-849 l76 -98 -26 -22 c-27 -21 -236 -205 -645 -566 -690 -609 -1483 -1305
-1994 -1750 -800 -695 -935 -813 -938 -822 -2 -4 546 -8 1217 -8 l1220 0 33
28 c18 16 125 109 238 207 113 98 338 293 500 434 395 343 925 806 1422 1244
142 125 263 227 268 227 5 0 126 -102 268 -227 497 -438 1027 -901 1422 -1244
162 -141 387 -336 500 -434 113 -98 220 -191 238 -207 l33 -28 1220 0 c671 0
1219 4 1217 8 -3 9 -138 127 -938 822 -511 445 -1304 1141 -1994 1750 -409
361 -618 545 -645 566 l-26 22 76 98 c41 55 334 437 650 849 317 413 680 887
809 1055 129 168 298 388 375 490 178 233 336 439 573 748 103 134 193 252
201 262 13 20 2 20 -1215 20 -1193 0 -1230 -1 -1241 -19 -6 -10 -265 -349
-574 -752 -309 -404 -648 -845 -752 -981 -104 -137 -193 -248 -197 -248 -4 0
-93 111 -197 248 -104 136 -443 577 -752 981 -309 403 -568 742 -574 752 -11
18 -48 19 -1241 19 -1217 0 -1228 0 -1215 -20z"/>
</g>
</svg>
