<svg width="39" height="39" viewBox="0 0 39 39" fill="none" xmlns="http://www.w3.org/2000/svg">
<path d="M31.1818 33.0012H26.2003L25.4632 31.7241L25.076 31.0533L24.7996 30.5744L22.5853 26.7393L22.3089 26.2609L21.1932 24.3288L18.7025 20.0149L17.4597 17.8617L15.5911 14.6253L10.3065 23.7779H15.573L13.0827 28.0914H11.5536L7.81585 28.0918L4.9814 33.0012H0L2.83444 28.0918L5.32514 23.7779L13.1004 10.3113L15.5911 5.99731L17.4597 9.23375L18.0818 10.3113L19.9504 13.5477L24.7996 21.9465L25.076 22.4253L27.2903 26.2605L27.5667 26.7393L29.1136 29.4186V29.4191L31.1818 33.0012Z" fill="#44A3F2"/>
<path d="M31.4759 19.9686L39 33.0013H34.0191L31.2085 28.1335L28.9852 24.2826L28.7088 23.8038L26.4945 19.9686L26.2181 19.4898L21.3689 11.091L19.5003 7.85408L18.8782 6.77702L18.4175 5.97925H23.3989L23.8596 6.77654L28.7088 15.1758L33.5579 6.77654L34.0186 5.97925H39L38.5393 6.77702L37.9172 7.85408L36.0486 11.091L31.1995 19.4898L31.4759 19.9686Z" fill="black"/>
<path d="M23.4051 32.9893L23.3984 33.0012H18.4175L20.9149 28.6753L21.1913 29.1541L23.4041 32.9874L23.4051 32.9893Z" fill="black"/>
</svg>