<svg width="149" height="157" viewBox="0 0 149 157" fill="none" xmlns="http://www.w3.org/2000/svg">
<path fill-rule="evenodd" clip-rule="evenodd" d="M129.332 26.0972H121.918C120.214 26.0972 118.831 24.722 118.831 23.0263C118.831 21.3305 120.214 19.9554 121.918 19.9554H129.332C131.036 19.9554 132.418 21.3305 132.418 23.0263C132.418 24.722 131.036 26.0972 129.332 26.0972ZM129.332 81.512H121.918C120.214 81.512 118.831 80.1371 118.831 78.4411C118.831 76.7453 120.214 75.3702 121.918 75.3702H129.332C131.036 75.3702 132.418 76.7453 132.418 78.4411C132.418 80.1371 131.036 81.512 129.332 81.512ZM129.332 136.927H121.918C120.214 136.927 118.831 135.552 118.831 133.856C118.831 132.16 120.214 130.785 121.918 130.785H129.332C131.036 130.785 132.418 132.16 132.418 133.856C132.418 135.552 131.036 136.927 129.332 136.927ZM66.3165 136.927H47.7825C46.0778 136.927 44.696 135.552 44.696 133.856C44.696 132.16 46.0778 130.785 47.7825 130.785H66.3165C68.0212 130.785 69.403 132.16 69.403 133.856C69.403 135.552 68.0212 136.927 66.3165 136.927ZM36.6622 136.927H18.1282C16.4235 136.927 15.0417 135.552 15.0417 133.856C15.0417 132.16 16.4235 130.785 18.1282 130.785H36.6622C38.3668 130.785 39.7487 132.16 39.7487 133.856C39.7487 135.552 38.3668 136.927 36.6622 136.927ZM18.1282 75.3702H36.6622C38.3668 75.3702 39.7487 76.7453 39.7487 78.4411C39.7487 80.1371 38.3668 81.512 36.6622 81.512H18.1282C16.4235 81.512 15.0417 80.1371 15.0417 78.4411C15.0417 76.7453 16.4235 75.3702 18.1282 75.3702ZM18.1282 19.9554H36.6622C38.3668 19.9554 39.7487 21.3305 39.7487 23.0263C39.7487 24.722 38.3668 26.0972 36.6622 26.0972H18.1282C16.4235 26.0972 15.0417 24.722 15.0417 23.0263C15.0417 21.3305 16.4235 19.9554 18.1282 19.9554ZM17.8238 55.5619H131.176V45.8569H17.8238V55.5619ZM17.8238 111.075H131.176V101.419H17.8238V111.075ZM66.3165 81.512H47.7825C46.0778 81.512 44.696 80.1371 44.696 78.4411C44.696 76.7453 46.0778 75.3702 47.7825 75.3702H66.3165C68.0212 75.3702 69.403 76.7453 69.403 78.4411C69.403 80.1371 68.0212 81.512 66.3165 81.512ZM47.7825 19.9554H66.3165C68.0212 19.9554 69.403 21.3305 69.403 23.0263C69.403 24.722 68.0212 26.0972 66.3165 26.0972H47.7825C46.0778 26.0972 44.696 24.722 44.696 23.0263C44.696 21.3305 46.0778 19.9554 47.7825 19.9554ZM145.914 45.759C147.618 45.759 149 44.3841 149 42.6881V3.07091C149 1.37484 147.618 0 145.914 0H3.08648C1.38182 0 0 1.37484 0 3.07091V42.6881C0 44.3841 1.38182 45.759 3.08648 45.759H11.6509V55.6596H3.08648C1.38182 55.6596 0 57.0344 0 58.7305V98.3476C0 100.044 1.38182 101.419 3.08648 101.419H11.6509V111.124H3.08648C1.38182 111.124 0 112.498 0 114.194V153.812C0 155.507 1.38182 156.882 3.08648 156.882H145.914C147.618 156.882 149 155.507 149 153.812V114.194C149 112.498 147.618 111.124 145.914 111.124H137.349V101.419H145.914C147.618 101.419 149 100.044 149 98.3476V58.7305C149 57.0344 147.618 55.6596 145.914 55.6596H137.349V45.759H145.914Z" fill="white"/>
</svg>
